REM DIRINDEX 1\2\5,1\2\6,1\2\7,1\2\8,1\3\9,1\3\10,1\3\11,1\4\12,1\4\13,1\4\14,1\4\15,1\4\16
REM DIRNAME folder01,folder02,folder03,folder04,folder05,folder06,folder07,folder08,folder09,folder10,folder11,folder12,folder13,folder14,folder15,folder16
TITLE ""
FILE "1200_sec03_0702_0710.mp3" MP3
  TRACK 01 AUDIO
    TITLE "0:"
    INDEX 01 00:00:00
  TRACK 02 AUDIO
    TITLE "12:cjc034_06466"
    INDEX 01 00:00:17
  TRACK 03 AUDIO
    TITLE "0:"
    INDEX 01 00:01:24
  TRACK 04 AUDIO
    TITLE "13:cjc034_06467"
    INDEX 01 00:01:58
  TRACK 05 AUDIO
    TITLE "0:"
    INDEX 01 00:03:49
  TRACK 06 AUDIO
    TITLE "14:cjc034_06468"
    INDEX 01 00:04:07
  TRACK 07 AUDIO
    TITLE "0:"
    INDEX 01 00:05:14
  TRACK 08 AUDIO
    TITLE "15:cjc034_06469"
    INDEX 01 00:05:48
  TRACK 09 AUDIO
    TITLE "0:"
    INDEX 01 00:08:62
  TRACK 10 AUDIO
    TITLE "12:cjc034_06470"
    INDEX 01 00:10:27
  TRACK 11 AUDIO
    TITLE "0:"
    INDEX 01 00:12:01
  TRACK 12 AUDIO
    TITLE "13:cjc034_06471"
    INDEX 01 00:12:36
  TRACK 13 AUDIO
    TITLE "0:"
    INDEX 01 00:13:59
  TRACK 14 AUDIO
    TITLE "14:cjc034_06472"
    INDEX 01 00:14:15
  TRACK 15 AUDIO
    TITLE "0:"
    INDEX 01 00:15:64
  TRACK 16 AUDIO
    TITLE "15:cjc034_06473"
    INDEX 01 00:16:22
  TRACK 17 AUDIO
    TITLE "0:"
    INDEX 01 00:19:13
  TRACK 18 AUDIO
    TITLE "12:cjc034_06474"
    INDEX 01 00:20:43
  TRACK 19 AUDIO
    TITLE "0:"
    INDEX 01 00:21:68
  TRACK 20 AUDIO
    TITLE "13:cjc034_06475"
    INDEX 01 00:22:25
  TRACK 21 AUDIO
    TITLE "0:"
    INDEX 01 00:24:25
  TRACK 22 AUDIO
    TITLE "14:cjc034_06476"
    INDEX 01 00:24:57
  TRACK 23 AUDIO
    TITLE "0:"
    INDEX 01 00:26:05
  TRACK 24 AUDIO
    TITLE "15:cjc034_06477"
    INDEX 01 00:26:40
  TRACK 25 AUDIO
    TITLE "0:"
    INDEX 01 00:29:58
  TRACK 26 AUDIO
    TITLE "12:cjc034_06478"
    INDEX 01 00:31:20
  TRACK 27 AUDIO
    TITLE "0:"
    INDEX 01 00:32:31
  TRACK 28 AUDIO
    TITLE "13:cjc034_06479"
    INDEX 01 00:32:68
  TRACK 29 AUDIO
    TITLE "0:"
    INDEX 01 00:34:49
  TRACK 30 AUDIO
    TITLE "14:cjc034_06480"
    INDEX 01 00:35:06
  TRACK 31 AUDIO
    TITLE "0:"
    INDEX 01 00:36:19
  TRACK 32 AUDIO
    TITLE "15:cjc034_06481"
    INDEX 01 00:36:56
  TRACK 33 AUDIO
    TITLE "0:"
    INDEX 01 00:41:45
  TRACK 34 AUDIO
    TITLE "12:cjc034_06482"
    INDEX 01 00:43:03
  TRACK 35 AUDIO
    TITLE "0:"
    INDEX 01 00:44:16
  TRACK 36 AUDIO
    TITLE "13:cjc034_06483"
    INDEX 01 00:44:52
  TRACK 37 AUDIO
    TITLE "0:"
    INDEX 01 00:46:41
  TRACK 38 AUDIO
    TITLE "14:cjc034_06484"
    INDEX 01 00:46:74
  TRACK 39 AUDIO
    TITLE "0:"
    INDEX 01 00:48:12
  TRACK 40 AUDIO
    TITLE "15:cjc034_06485"
    INDEX 01 00:48:46
  TRACK 41 AUDIO
    TITLE "0:"
    INDEX 01 00:51:71
  TRACK 42 AUDIO
    TITLE "12:cjc034_06486"
    INDEX 01 00:53:31
  TRACK 43 AUDIO
    TITLE "0:"
    INDEX 01 00:54:40
  TRACK 44 AUDIO
    TITLE "13:cjc034_06487"
    INDEX 01 00:54:72
  TRACK 45 AUDIO
    TITLE "0:"
    INDEX 01 00:56:71
  TRACK 46 AUDIO
    TITLE "14:cjc034_06488"
    INDEX 01 00:57:29
  TRACK 47 AUDIO
    TITLE "0:"
    INDEX 01 00:58:36
  TRACK 48 AUDIO
    TITLE "15:cjc034_06489"
    INDEX 01 00:58:69
  TRACK 49 AUDIO
    TITLE "0:"
    INDEX 01 01:02:26
  TRACK 50 AUDIO
    TITLE "12:cjc034_06490"
    INDEX 01 01:03:59
  TRACK 51 AUDIO
    TITLE "0:"
    INDEX 01 01:05:01
  TRACK 52 AUDIO
    TITLE "13:cjc034_06491"
    INDEX 01 01:05:36
  TRACK 53 AUDIO
    TITLE "0:"
    INDEX 01 01:07:64
  TRACK 54 AUDIO
    TITLE "14:cjc034_06492"
    INDEX 01 01:08:23
  TRACK 55 AUDIO
    TITLE "0:"
    INDEX 01 01:09:38
  TRACK 56 AUDIO
    TITLE "15:cjc034_06493"
    INDEX 01 01:09:73
  TRACK 57 AUDIO
    TITLE "0:"
    INDEX 01 01:13:71
  TRACK 58 AUDIO
    TITLE "12:cjc034_06494"
    INDEX 01 01:15:31
  TRACK 59 AUDIO
    TITLE "0:"
    INDEX 01 01:16:34
  TRACK 60 AUDIO
    TITLE "13:cjc034_06495"
    INDEX 01 01:16:73
  TRACK 61 AUDIO
    TITLE "0:"
    INDEX 01 01:19:50
  TRACK 62 AUDIO
    TITLE "14:cjc034_06496"
    INDEX 01 01:20:04
  TRACK 63 AUDIO
    TITLE "0:"
    INDEX 01 01:21:08
  TRACK 64 AUDIO
    TITLE "15:cjc034_06497"
    INDEX 01 01:21:49
  TRACK 65 AUDIO
    TITLE "0:"
    INDEX 01 01:24:61
  TRACK 66 AUDIO
    TITLE "12:cjc034_06498"
    INDEX 01 01:26:21
  TRACK 67 AUDIO
    TITLE "0:"
    INDEX 01 01:27:12
  TRACK 68 AUDIO
    TITLE "13:cjc034_06499"
    INDEX 01 01:27:65
  TRACK 69 AUDIO
    TITLE "0:"
    INDEX 01 01:28:53
  TRACK 70 AUDIO
    TITLE "14:cjc034_06500"
    INDEX 01 01:29:09
  TRACK 71 AUDIO
    TITLE "0:"
    INDEX 01 01:30:05
  TRACK 72 AUDIO
    TITLE "15:cjc034_06501"
    INDEX 01 01:30:52
  TRACK 73 AUDIO
    TITLE "0:"
    INDEX 01 01:34:71
